<svg width="85" height="85" viewBox="0 0 85 85" fill="none" xmlns="http://www.w3.org/2000/svg">
<path d="M80.1756 69.2362V65.1881C80.1756 61.4999 77.7568 58.4861 74.7263 58.2966V25.2873H78.0784C79.2364 25.2873 80.1756 24.1589 80.1756 22.7667V11.9262C80.1756 10.7427 79.4905 9.7185 78.5289 9.46433L42.9506 0.0589203C42.6534 -0.0196401 42.3462 -0.0196401 42.0494 0.0589203L6.47105 9.46475C5.50947 9.71892 4.82437 10.7431 4.82437 11.9266V22.7667C4.82437 24.1589 5.76358 25.2873 6.92161 25.2873H10.2737V58.297C7.24319 58.4861 4.82437 61.4999 4.82437 65.1885V69.2367C2.08571 69.8294 0 72.7084 0 76.168V82.4793C0 83.8716 0.939217 85 2.09725 85H6.92161H78.0784H82.9027C84.0608 85 85 83.8716 85 82.4793V76.168C85 72.7084 82.9139 69.8294 80.1756 69.2362ZM9.01886 65.1881C9.01886 64.158 9.71619 63.3198 10.5733 63.3198H74.4267C75.2838 63.3198 75.9811 64.158 75.9811 65.1881V69.1182H9.01886V65.1881ZM20.4384 58.2785H14.4682V26.0221H20.4384V58.2785ZM43.6692 25.2873V58.2785H41.3311V25.2873H43.6692ZM53.8342 58.2785H47.8637V26.0221H53.8342V58.2785ZM70.5318 58.2785H64.5616V26.0221H70.5318V58.2785ZM37.1363 26.0221V58.2785H31.1658V26.0221H37.1363ZM4.19449 76.168C4.19449 75.0606 4.94426 74.1599 5.8653 74.1599H6.92126H9.01851H75.9808H78.078H79.134C80.0554 74.1599 80.8048 75.0611 80.8048 76.168V79.9587H75.9804H9.01886H4.19449V76.168ZM60.3671 58.2785H58.0287V25.2873H60.3671V58.2785ZM9.01886 13.9528L42.5 5.10149L75.9811 13.9528V20.2456H9.01886V13.9528ZM26.9713 25.2873V58.2785H24.6329V25.2873H26.9713Z" fill="#FFBA08"/>
</svg>
